<svg xmlns="http://www.w3.org/2000/svg" xmlns:xlink="http://www.w3.org/1999/xlink">
  <symbol id="user" viewBox="0 -32 512 512">
    <path d="m298.667969 106.667969c0 58.910156-47.757813 106.664062-106.667969 106.664062s-106.667969-47.753906-106.667969-106.664062c0-58.910157 47.757813-106.667969 106.667969-106.667969s106.667969 47.757812 106.667969 106.667969zm0 0" /><path d="m282.667969 256h-181.335938c-55.871093 0-101.332031 45.460938-101.332031 101.332031v74.667969c0 8.832031 7.167969 16 16 16h352c8.832031 0 16-7.167969 16-16v-74.667969c0-55.871093-45.460938-101.332031-101.332031-101.332031zm0 0" /><g fill="#42a5f5"><path d="m458.667969 213.332031h-138.667969c-11.796875 0-21.332031-9.554687-21.332031-21.332031s9.535156-21.332031 21.332031-21.332031h138.667969c11.796875 0 21.332031 9.554687 21.332031 21.332031s-9.535156 21.332031-21.332031 21.332031zm0 0"/><path d="m506.902344 180.265625-74.667969-69.332031c-3.007813-2.796875-6.933594-4.246094-10.878906-4.246094-10.582031 0-16.023438 9.003906-16.023438 15.980469v138.664062c0 8.875 7.210938 16 16 16 3.96875 0 7.875-1.46875 10.902344-4.265625l74.667969-69.332031c3.242187-3.03125 5.097656-7.296875 5.097656-11.734375s-1.855469-8.703125-5.097656-11.734375zm0 0"/></g>
  </symbol>

  <symbol id="user-place" viewBox="0 0 512 512">
	<g>
	<g>
		<path d="M256,0c-74.439,0-135,60.561-135,135s60.561,135,135,135s135-60.561,135-135S330.439,0,256,0z"/>
	</g>
</g>
<g>
	<g>
		<path d="M423.966,358.195C387.006,320.667,338.009,300,286,300h-60c-52.008,0-101.006,20.667-137.966,58.195
			C51.255,395.539,31,444.833,31,497c0,8.284,6.716,15,15,15h420c8.284,0,15-6.716,15-15
			C481,444.833,460.745,395.539,423.966,358.195z"/>
	</g>
</g>
  </symbol>

	<symbol id="imbd" viewBox="0 0 490.667 490.667">
		<path style="fill:#FFC107;" d="M53.333,138.667h384c29.455,0,53.333,23.878,53.333,53.333v106.667
	c0,29.455-23.878,53.333-53.333,53.333h-384C23.878,352,0,328.122,0,298.667V192C0,162.545,23.878,138.667,53.333,138.667z"/>
<g>
	<path style="fill:#455A64;" d="M96,309.333c-5.891,0-10.667-4.776-10.667-10.667V192c0-5.891,4.776-10.667,10.667-10.667
		c5.891,0,10.667,4.776,10.667,10.667v106.667C106.667,304.558,101.891,309.333,96,309.333z"/>
	<path style="fill:#455A64;" d="M224,309.333c-5.891,0-10.667-4.776-10.667-10.667v-96h-1.92L191.787,300.8
		c-1.172,5.773-6.803,9.503-12.576,8.331c-4.198-0.852-7.478-4.133-8.331-8.331l-19.627-98.133h-1.92v96
		c0,5.891-4.776,10.667-10.667,10.667S128,304.558,128,298.667V192c0-5.891,4.776-10.667,10.667-10.667H160
		c5.07-0.001,9.439,3.566,10.453,8.533l10.88,54.4l10.88-54.4c1.014-4.967,5.384-8.534,10.453-8.533H224
		c5.891,0,10.667,4.776,10.667,10.667v106.667C234.667,304.558,229.891,309.333,224,309.333z"/>
	<path style="fill:#455A64;" d="M288,309.333h-21.333c-5.891,0-10.667-4.776-10.667-10.667V192c0-5.891,4.776-10.667,10.667-10.667
		H288c17.673,0,32,14.327,32,32v64C320,295.006,305.673,309.333,288,309.333z M277.333,288H288c5.891,0,10.667-4.776,10.667-10.667
		v-64c0-5.891-4.776-10.667-10.667-10.667h-10.667V288z"/>
	<path style="fill:#455A64;" d="M352,309.333c-5.891,0-10.667-4.776-10.667-10.667V192c0-5.891,4.776-10.667,10.667-10.667
		c5.891,0,10.667,4.776,10.667,10.667v106.667C362.667,304.558,357.891,309.333,352,309.333z"/>
	<path style="fill:#455A64;" d="M373.333,309.333c-17.673,0-32-14.327-32-32v-42.667c0-17.673,14.327-32,32-32s32,14.327,32,32
		v42.667C405.333,295.006,391.006,309.333,373.333,309.333z M373.333,224c-5.891,0-10.667,4.776-10.667,10.667v42.667
		c0,5.891,4.776,10.667,10.667,10.667S384,283.224,384,277.333v-42.667C384,228.776,379.224,224,373.333,224z"/>
</g>
	</symbol>

	<symbol id="profile" viewBox="0 0 45.532 45.532">
		<g>
			<path d="M22.766,0.001C10.194,0.001,0,10.193,0,22.766s10.193,22.765,22.766,22.765c12.574,0,22.766-10.192,22.766-22.765
				S35.34,0.001,22.766,0.001z M22.766,6.808c4.16,0,7.531,3.372,7.531,7.53c0,4.159-3.371,7.53-7.531,7.53
				c-4.158,0-7.529-3.371-7.529-7.53C15.237,10.18,18.608,6.808,22.766,6.808z M22.761,39.579c-4.149,0-7.949-1.511-10.88-4.012
				c-0.714-0.609-1.126-1.502-1.126-2.439c0-4.217,3.413-7.592,7.631-7.592h8.762c4.219,0,7.619,3.375,7.619,7.592
				c0,0.938-0.41,1.829-1.125,2.438C30.712,38.068,26.911,39.579,22.761,39.579z"/>
		</g>
	</symbol>

	<symbol id="logout" viewBox="0 0 512 512">
		<g>
			<path d="M510.371,226.513c-1.088-2.603-2.645-4.971-4.629-6.955l-63.979-63.979c-8.341-8.32-21.824-8.32-30.165,0
				c-8.341,8.341-8.341,21.845,0,30.165l27.584,27.584H320.013c-11.797,0-21.333,9.557-21.333,21.333s9.536,21.333,21.333,21.333
				h119.168l-27.584,27.584c-8.341,8.341-8.341,21.845,0,30.165c4.16,4.181,9.621,6.251,15.083,6.251s10.923-2.069,15.083-6.251
				l63.979-63.979c1.984-1.963,3.541-4.331,4.629-6.955C512.525,237.606,512.525,231.718,510.371,226.513z"/>
			<path d="M362.68,298.667c-11.797,0-21.333,9.557-21.333,21.333v106.667h-85.333V85.333c0-9.408-6.187-17.728-15.211-20.437
				l-74.091-22.229h174.635v106.667c0,11.776,9.536,21.333,21.333,21.333s21.333-9.557,21.333-21.333v-128
				C384.013,9.557,374.477,0,362.68,0H21.347c-0.768,0-1.451,0.32-2.197,0.405c-1.003,0.107-1.92,0.277-2.88,0.512
				c-2.24,0.576-4.267,1.451-6.165,2.645c-0.469,0.299-1.045,0.32-1.493,0.661C8.44,4.352,8.376,4.587,8.205,4.715
				C5.88,6.549,3.939,8.789,2.531,11.456c-0.299,0.576-0.363,1.195-0.597,1.792c-0.683,1.621-1.429,3.2-1.685,4.992
				c-0.107,0.64,0.085,1.237,0.064,1.856c-0.021,0.427-0.299,0.811-0.299,1.237V448c0,10.176,7.189,18.923,17.152,20.907
				l213.333,42.667c1.387,0.299,2.795,0.427,4.181,0.427c4.885,0,9.685-1.685,13.525-4.843c4.928-4.053,7.808-10.091,7.808-16.491
				v-21.333H362.68c11.797,0,21.333-9.557,21.333-21.333V320C384.013,308.224,374.477,298.667,362.68,298.667z"/>
		</g>
	</symbol>
</svg>